<?xml version="1.0" encoding="UTF-8"?><svg id="Black" xmlns="http://www.w3.org/2000/svg" viewBox="0 0 32 32"><circle cx="13.03" cy="6.22" r="2.37"/><circle cx="18.97" cy="6.22" r="2.37"/><path d="m0,19.26c0,2.28,1.87,4.14,4.15,4.14,2.19,0,3.49-1.51,4-3.04l2.71-8.61-8.05,3.56C1.19,16.03,0,17.32,0,19.26Z"/><path d="m20.65,12.54c-.82-1.75-2.6-2.96-4.65-2.96s-3.82,1.21-4.64,2.96h9.29Z"/><rect x="10.86" y="14.91" width="10.27" height="2.77"/><rect x="10.86" y="20.05" width="10.27" height="2.77"/><path d="m11.36,25.19c.82,1.75,2.6,2.96,4.65,2.96s3.82-1.21,4.64-2.96h-9.29Z"/><path d="m29.18,15.3l-8.05-3.56,2.71,8.61c.51,1.53,1.81,3.04,4,3.04,2.28,0,4.15-1.86,4.15-4.14,0-1.93-1.19-3.22-2.82-3.96Z"/></svg>