<?xml version="1.0" encoding="UTF-8"?><svg id="Layer_2" xmlns="http://www.w3.org/2000/svg" viewBox="0 0 424.66 157.45"><defs><style>.cls-1{fill:#fff;}</style></defs><g id="artwork"><path id="IBM_" class="cls-1" d="m407.85,148.79c0-4.91,3.74-8.65,8.4-8.65s8.4,3.74,8.4,8.65-3.74,8.65-8.4,8.65-8.4-3.74-8.4-8.65Zm14.83.55v-1.09c0-3.53-2.77-6.3-6.43-6.3s-6.43,2.77-6.43,6.3v1.09c0,3.53,2.77,6.3,6.43,6.3s6.43-2.77,6.43-6.3Zm-7.69,3.91h-2.14v-8.78h3.99c1.97,0,2.98,1.18,2.98,2.77,0,1.39-.63,2.27-1.6,2.65l1.97,3.36h-2.35l-1.64-3.02h-1.22v3.02Zm1.6-4.62c.67,0,1.05-.29,1.05-.92v-.63c0-.63-.38-.92-1.05-.92h-1.6v2.48h1.6ZM0,147h77v10H0v-10Zm0-11h77v-10H0v10Zm22-21h33v-10H22v10Zm0-21h33v-10H22v10Zm0-21h33v-10H22v10Zm33-31H22v10h33v-10ZM0,31h77v-10H0v10ZM0,10h77V0H0v10Zm88,147h81c10.37,0,19.86-3.77,27.19-10h-108.19v10Zm0-21h117.37c1.8-3.1,3.21-6.46,4.17-10h-121.54v10Zm22-21h33v-10h-33v10Zm0-52v10h87.29c3.17-2.9,5.9-6.26,8.07-10h-95.36Zm99.54-32c-.96-3.54-2.37-6.9-4.17-10h-117.37v10h121.54Zm-99.54,21h33v-10h-33v10Zm64,0h35.78c.78-3.21,1.22-6.55,1.22-10h-37v10Zm0,53v10h37c0-3.45-.44-6.79-1.22-10h-35.78Zm23.29-21h-87.29v10h95.36c-2.17-3.74-4.9-7.1-8.07-10Zm-1.1-74C188.86,3.77,179.37,0,169,0h0s-81,0-81,0v10h108.19Zm23.81,147h55v-10h-55v10Zm0-21h55v-10h-55v10Zm22-21h33v-10h-33v10Zm0-21h33v-10h-33v10Zm99,63h55v-10h-55v10Zm0-21h55v-10h-55v10Zm0-21h33v-10h-33v10Zm33-31h-33v10h33v-10Zm-33-11h33v-10h-61.86l-3.47,10h28.96l3.36-9.52v9.52Zm33-31h-54.57l-3.47,10h58.04v-10ZM334,0l-3.47,10h65.47V0h-62Zm-26,157l3.51-10h-7.02l3.51,10Zm-7.39-21h14.79l3.53-10h-21.85l3.53,10Zm-7.41-21h29.62l3.53-10h-36.68l3.53,10Zm-7.41-21h44.45l3.53-10h-51.51l3.53,10Zm-43.78-42h58.04l-3.47-10h-54.57v10Zm81.25-21h72.75v-10h-69.29l-3.47,10Zm-33.96-10h-69.29v10h72.75l-3.47-10Zm-7.29-21h-62v10h65.47l-3.47-10Zm25.33,73l-3.47-10h-61.86v10h33v-9.49l3.36,9.49h28.96Z"/></g></svg>